<?xml version="1.0" encoding="utf-8"?>
<!-- Generator: Adobe Illustrator 26.3.1, SVG Export Plug-In . SVG Version: 6.00 Build 0)  -->
<svg version="1.1" id="Calque_1" xmlns="http://www.w3.org/2000/svg" xmlns:xlink="http://www.w3.org/1999/xlink" x="0px" y="0px"
	 viewBox="0 0 448 512" style="enable-background:new 0 0 448 512;" xml:space="preserve">
<style type="text/css">
	.st0{fill:#F6F6F6;}
</style>
<path class="st0" d="M221.6,148.7c3.1,12.6,3.2,25.8,0.5,38.5c-2.8,11.9-8.5,24.7-16.5,34.9c-14.5,16.5-32.6,27-54.5,32V472
	c0,10.6-3.3,20.8-10.8,28.3S122.6,512,111.1,512c-9.7,0-19.9-4.2-27.4-11.7c-7.5-7.5-12.6-17.7-12.6-28.3V254.1
	c-20.1-4-39.1-15.2-52.8-31.7c-8.1-10.2-13.8-22.1-16.5-34.9s-2.6-26,0.5-38.7L32.5,12.4c0.9-3.9,3.1-7.3,6.3-9.5
	C42,0.6,46-0.4,49.9,0c3.9,0.4,7.6,2.3,10.2,5.3c2.6,3,4.1,6.8,4.1,10.7v144h17.4L98.6,11.9c0.4-3.3,2-6.3,4.5-8.5
	c2.4-2.2,5.6-3.4,8-3.4c4.2,0,7.4,1.2,9.8,3.4c2.5,2.2,3.2,5.2,4.5,8.5L142.5,160h16.6V16c0-3.9,2.3-7.7,4-10.7
	c3.5-3,7.1-4.8,11-5.3c3.9-0.4,7,0.6,11.1,2.9c3.2,2.3,5.4,5.7,6.3,9.6L221.6,148.7z M448,472c0,10.6-4.2,20.8-11.7,28.3
	S418.6,512,408,512s-20.8-4.2-28.3-11.7S368,482.6,368,472V352h-16.8c-8.4,0-16.8-1.7-24.6-4.9c-7.7-3.3-14.8-8-20.8-14
	c-5.9-6-10.6-13.1-14.7-20.9c-2.3-7.8-3.9-16.2-3.9-24.6l-0.1-113.8c0.9-36.9,12-73,32.7-103.5c20.7-30.6,50-54.2,84.3-67.9
	c4-1.9,10.1-2.7,15.3-2.1c5.2,0.6,10.2,2.4,14.5,5.3c4.3,2.9,7.9,6.9,10.3,11.5c2.5,4.6,2.9,9.8,3.8,15V472z"/>
</svg>
